HIERARCHY
ROOT Hips
{
  OFFSET 3.13124 94.3669 -3.18751
  CHANNELS  6 Xposition Yposition Zposition Zrotation Xrotation Yrotation
  JOINT LeftUpLeg
  {
    OFFSET 8.64259 1.95398 -2.38835
    CHANNELS 3 Zrotation Xrotation Yrotation
    JOINT LeftLeg
    {
      OFFSET 43.7702 0 0
      CHANNELS 3 Zrotation Xrotation Yrotation
      JOINT LeftFoot
      {
        OFFSET 40.6238 0 0
        CHANNELS 3 Zrotation Xrotation Yrotation
        JOINT LeftToeBase
        {
          OFFSET 12.7242 0 0
          CHANNELS 3 Zrotation Xrotation Yrotation
          End Site
          {
            OFFSET 0 0 0
          }
        }
      }
    }
  }
  JOINT RightUpLeg
  {
    OFFSET -8.2249 1.95398 -2.59336
    CHANNELS 3 Zrotation Xrotation Yrotation
    JOINT RightLeg
    {
      OFFSET 43.5653 0 0
      CHANNELS 3 Zrotation Xrotation Yrotation
      JOINT RightFoot
      {
        OFFSET 40.6238 0 0
        CHANNELS 3 Zrotation Xrotation Yrotation
        JOINT RightToeBase
        {
          OFFSET 12.7242 0 0
          CHANNELS 3 Zrotation Xrotation Yrotation
          End Site
          {
            OFFSET 0 0 0
          }
        }
      }
    }
  }
  JOINT Spine
  {
    OFFSET 0.165834 0.87714 6.61349
    CHANNELS 3 Zrotation Xrotation Yrotation
    JOINT Spine1
    {
      OFFSET 7.38962 1.71661e-005 0
      CHANNELS 3 Zrotation Xrotation Yrotation
      JOINT Spine2
      {
        OFFSET 11.9445 1.14441e-005 0
        CHANNELS 3 Zrotation Xrotation Yrotation
        JOINT Spine3
        {
          OFFSET 14.7254 4.19617e-005 0
          CHANNELS 3 Zrotation Xrotation Yrotation
          JOINT Spine4
          {
            OFFSET 10.9679 0 0
            CHANNELS 3 Zrotation Xrotation Yrotation
            JOINT RightShoulder
            {
              OFFSET 2.46616 -1.6653 3.69651
              CHANNELS 3 Zrotation Xrotation Yrotation
              JOINT RightArm
              {
                OFFSET 13.0012 0 0
                CHANNELS 3 Zrotation Xrotation Yrotation
                JOINT RightForeArm
                {
                  OFFSET 28.7848 1.52588e-005 0
                  CHANNELS 3 Zrotation Xrotation Yrotation
                  JOINT RightHand
                  {
                    OFFSET 26.5688 1.52588e-005 0
                    CHANNELS 3 Zrotation Xrotation Yrotation
                    End Site
                    {
                      OFFSET 0 0 0
                    }
                  }
                }
              }
            }
            JOINT LeftShoulder
            {
              OFFSET 2.38034 -1.29275 -3.75231
              CHANNELS 3 Zrotation Xrotation Yrotation
              JOINT LeftArm
              {
                OFFSET 16.3182 6.10352e-005 0
                CHANNELS 3 Zrotation Xrotation Yrotation
                JOINT LeftForeArm
                {
                  OFFSET 27.0901 0 0
                  CHANNELS 3 Zrotation Xrotation Yrotation
                  JOINT LeftHand
                  {
                    OFFSET 24.5451 1.52588e-005 0
                    CHANNELS 3 Zrotation Xrotation Yrotation
                    End Site
                    {
                      OFFSET 0 0 0
                    }
                  }
                }
              }
            }
            JOINT Neck
            {
              OFFSET 5.0226 -0.0266342 0
              CHANNELS 3 Zrotation Xrotation Yrotation
              JOINT Head
              {
                OFFSET 6.69363 2.86102e-005 0
                CHANNELS 3 Zrotation Xrotation Yrotation
                End Site
                {
                  OFFSET 0 0 0
                }
              }
            }
          }
        }
      }
    }
  }
}
MOTION
Frames:	5
Frame Time:	0.0333333
-4.17983 97.6726 -34.4013 68.3958 -89.9966 68.4566 -172.013 2.75181 92.1756 -8.78967 7.82318 1.46111 63.3146 1.3353 0.683661 28.7808 6.06458e-006 1.29276e-006 179.455 1.89302 89.1778 -7.58595 -0.426128 -0.0176794 62.7275 -1.23345 -0.62452 28.7808 1.48984e-005 2.7293e-005 0.00483441 6.34031 -90.061 14.1935 0.0069139 0.00898159 2.52251 0.00730215 0.0076131 -20.0126 0.00389484 0.00251818 -1.69943e-007 0.00389166 0.00250203 100.87 -18.6986 -85.3785 0.704677 42.1624 -18.099 -2.56706 0.288191 -2.55864 -5.37983 -0.320015 -0.0162402 -78.9728 -21.4111 94.3298 17.3164 -33.9829 -2.14468 -0.562786 33.9216 -12.6722 0.538724 0.144634 4.62327 1.75016 -0.00118434 -0.00449147 -7.40446 0.0015458 0.00335316 
-4.20496 97.6696 -34.3433 51.4853 -89.9676 51.5567 -171.992 2.71711 92.2013 -8.74818 7.86097 1.4542 63.3481 1.41932 0.733506 28.7808 6.06458e-006 1.29276e-006 179.459 1.89008 89.199 -7.62314 -0.468962 -0.0176795 62.7825 -1.31201 -0.67077 28.7808 1.48984e-005 2.7293e-005 0.0054109 6.34027 -90.0685 14.1934 0.0069139 0.00898159 2.52245 0.00730215 0.0076131 -20.0127 0.00389484 0.00251818 -6.19194e-005 0.00389166 0.00250203 100.922 -18.7257 -85.3638 0.681992 42.1703 -18.0872 -2.56816 0.288193 -2.54728 -5.37983 -0.320015 -0.0162402 -78.9256 -21.4369 94.3257 17.3536 -33.9119 -2.06159 -0.639743 33.7898 -12.6935 0.469586 0.144606 4.75762 1.69647 -0.0206311 -0.0748975 -7.30713 0.0015458 0.0551651 
-4.23462 97.6681 -34.2782 71.625 -89.9224 71.6959 -171.974 2.68407 92.2222 -8.74154 7.95067 1.47274 63.3731 1.42826 0.73914 28.7808 6.06458e-006 1.29276e-006 179.468 1.82523 89.2171 -7.58488 -0.42355 -0.0176794 62.8154 -1.32328 -0.677771 28.7808 1.48984e-005 2.7293e-005 0.00540805 6.33962 -90.0698 14.1947 0.0069139 0.00898159 2.52373 0.00730215 0.0076131 -20.0114 0.00389484 0.00251818 0.00121936 0.00389166 0.00250203 100.987 -18.7306 -85.2802 0.693345 42.1439 -18.0831 -2.55148 0.28819 -2.56058 -5.37983 -0.320015 -0.0162402 -78.8976 -21.471 94.3154 17.3809 -33.8916 -2.00992 -0.664548 33.8099 -12.6875 0.56718 0.144238 4.77618 1.68121 -0.0427087 -0.124532 -7.2946 0.00146036 0.0774873 
-4.26274 97.6641 -34.2147 51.5816 -89.9039 51.6624 -171.958 2.67503 92.2483 -8.72846 7.96304 1.47895 63.4142 1.39358 0.719786 28.7808 6.06458e-006 1.29276e-006 179.481 1.84223 89.2424 -7.63426 -0.418399 -0.0176794 62.8682 -1.32832 -0.681316 28.7808 1.48984e-005 2.7293e-005 0.00353017 6.32268 -90.0679 14.2286 0.0069139 0.00898159 2.55762 0.00730215 0.0076131 -19.9775 0.00389484 0.00286498 0.0351085 0.00389166 0.00284923 100.914 -18.772 -85.2718 0.7382 42.1438 -18.1131 -2.56344 0.288189 -2.56831 -5.37983 -0.320015 -0.0162402 -78.9515 -21.4818 94.3737 17.4243 -33.9047 -1.98049 -0.586311 33.9723 -12.7252 0.495001 0.136972 4.70306 1.5178 -0.0267396 -0.186457 -7.25155 -0.00101331 0.0726493 
-4.2858 97.6694 -34.1501 47.7965 -89.8813 47.8832 -171.954 2.63982 92.2663 -8.69287 7.94907 1.48456 63.4315 1.37558 0.710612 28.7808 6.06458e-006 1.29276e-006 179.489 1.68722 89.2683 -7.36563 -0.373302 -0.0176793 62.7772 -1.35578 -0.695816 28.7808 1.48984e-005 2.7293e-005 0.00629228 6.31656 -90.0737 14.2408 0.0069139 0.00898159 2.56987 0.00730215 0.00767077 -19.9653 0.00389484 0.00835643 0.0473646 0.00389166 0.00834717 100.929 -18.8451 -85.2362 0.708174 42.1327 -18.0753 -2.54793 0.288188 -2.57304 -5.37983 -0.320015 -0.0162402 -78.9375 -21.4805 94.401 17.3889 -33.9659 -1.9991 -0.452088 33.8145 -12.8633 0.0510896 0.109708 5.0732 1.43038 -0.057112 -0.258583 -7.19377 -0.0209336 0.0861519 
